<svg width="18" height="15" viewBox="0 0 18 15" fill="none" xmlns="http://www.w3.org/2000/svg">
<path d="M2.39995 14.5C1.93245 14.5 1.53224 14.3286 1.19933 13.9859C0.86641 13.6432 0.699951 13.2312 0.699951 12.75V2.25C0.699951 1.76875 0.86641 1.35677 1.19933 1.01406C1.53224 0.671354 1.93245 0.5 2.39995 0.5H16C16.4675 0.5 16.8677 0.671354 17.2006 1.01406C17.5335 1.35677 17.7 1.76875 17.7 2.25V12.75C17.7 13.2312 17.5335 13.6432 17.2006 13.9859C16.8677 14.3286 16.4675 14.5 16 14.5H2.39995ZM9.19995 8.375L2.39995 4V12.75H16V4L9.19995 8.375ZM9.19995 6.625L16 2.25H2.39995L9.19995 6.625ZM2.39995 4V2.25V12.75V4Z" fill="#373C38"/>
</svg>
