<?xml version="1.0" encoding="UTF-8"?>
<svg id="_レイヤー_2" data-name="レイヤー 2" xmlns="http://www.w3.org/2000/svg" viewBox="0 0 333.2 261.95">
  <defs>
    <style>
      .cls-1 {
        stroke-width: 0px;
      }
    </style>
  </defs>
  <g id="_レイヤー_1-2" data-name="レイヤー 1">
    <path class="cls-1" d="M209.61,151.49c-11.33,23.76-39.77,33.83-63.52,22.51-23.76-11.33-33.83-39.77-22.51-63.52,11.33-23.76,39.77-33.83,63.52-22.51,23.76,11.33,33.83,39.77,22.51,63.52ZM115.56,237.88c8.86-18.58-.42-35.68-14.14-48.04-27.25-24.54-41.92-53.77-25.79-87.6,16.13-33.83,59.46-61.44,93.69-54.82,18.13,3.5,27.97,19.04,36.83.46,8.86-18.58-4.19-25.99-20.86-33.94C121.66-16.41,49.09,2.52,15.27,73.46c-33.82,70.94-9.57,153.33,54.07,183.68,16.67,7.95,37.37-.67,46.23-19.26ZM217.63,24.07c-8.86,18.58-.11,36.29,14.14,48.04,24.48,20.2,41.92,53.77,25.79,87.6-16.13,33.83-59.34,59.25-93.69,54.82-18.32-2.36-27.97-19.04-36.83-.46-8.86,18.58,4.19,25.99,20.86,33.94,63.64,30.34,136.2,11.41,170.02-59.53,33.82-70.94,9.57-153.33-54.07-183.68-16.67-7.95-37.37.67-46.23,19.26Z"/>
  </g>
</svg>