<?xml version="1.0" encoding="UTF-8"?>
<svg id="_レイヤー_2" data-name="レイヤー 2" xmlns="http://www.w3.org/2000/svg" viewBox="0 0 605.75 261.95">
  <defs>
    <style>
      .cls-1 {
        stroke-width: 0px;
      }
    </style>
  </defs>
  <g id="_レイヤー_1-2" data-name="レイヤー 1">
    <g>
      <path class="cls-1" d="M209.61,151.49c-11.33,23.76-39.77,33.83-63.52,22.51-23.76-11.33-33.83-39.77-22.51-63.52,11.33-23.76,39.77-33.83,63.52-22.51,23.76,11.33,33.83,39.77,22.51,63.52ZM115.56,237.88c8.86-18.58-.42-35.68-14.14-48.04-27.25-24.54-41.92-53.77-25.79-87.6,16.13-33.83,59.46-61.44,93.69-54.82,18.13,3.5,27.97,19.04,36.83.46,8.86-18.58-4.19-25.99-20.86-33.94C121.66-16.41,49.09,2.52,15.27,73.46c-33.82,70.94-9.57,153.33,54.07,183.68,16.67,7.95,37.37-.67,46.23-19.26ZM217.63,24.07c-8.86,18.58-.11,36.29,14.14,48.04,24.48,20.2,41.92,53.77,25.79,87.6-16.13,33.83-59.34,59.25-93.69,54.82-18.32-2.36-27.97-19.04-36.83-.46-8.86,18.58,4.19,25.99,20.86,33.94,63.64,30.34,136.2,11.41,170.02-59.53,33.82-70.94,9.57-153.33-54.07-183.68-16.67-7.95-37.37.67-46.23,19.26Z"/>
      <g>
        <path class="cls-1" d="M376.36,153.76c0-15.19,11.09-24.19,25.42-24.19s25.42,9,25.42,24.19-11.09,24.63-25.42,24.63-25.42-9.14-25.42-24.63ZM414.95,153.83c0-9.43-5.69-14.98-13.18-14.98s-13.18,5.54-13.18,14.98,5.69,15.27,13.18,15.27,13.18-5.69,13.18-15.27Z"/>
        <path class="cls-1" d="M430.79,127.76h10.95v15.7c0,1.37-.22,5.4-.43,8.06h.14c1.8-6.77,5.98-10.01,14.04-10.01,8.57,0,14.11,4.68,14.11,13.9v22.25h-10.94v-19.8c0-5.04-2.81-7.27-7.71-7.27-5.76,0-9.22,3.38-9.22,10.15v16.92h-10.95v-49.9Z"/>
        <path class="cls-1" d="M473.27,142.09h10.95l-.43,9.43h.14c1.8-6.77,5.98-10.01,14.04-10.01,8.57,0,14.11,4.68,14.11,13.9v22.25h-10.95v-19.8c0-5.04-2.88-7.27-7.7-7.27-5.76,0-9.22,3.38-9.22,10.15v16.92h-10.95v-35.57Z"/>
        <path class="cls-1" d="M515.1,159.95c0-11.59,7.63-18.43,19.37-18.43s19.37,6.84,19.37,18.43-7.63,18.29-19.37,18.29-19.37-6.77-19.37-18.29ZM542.89,159.95c0-6.34-3.1-10.08-8.42-10.08s-8.42,3.74-8.42,10.08,3.1,9.94,8.42,9.94,8.42-3.67,8.42-9.94Z"/>
        <path class="cls-1" d="M555.92,146.41c3.6-.14,5.18-1.66,5.18-5.04v-.29h-4.46v-10.8h10.66v7.63c0,9.94-4.18,13.54-11.38,13.75v-5.26Z"/>
        <path class="cls-1" d="M569.39,165.71h9.79c0,3.31,1.66,5.47,7.92,5.47,5.69,0,7.71-1.66,7.71-4.25,0-1.3-.65-2.3-2.52-2.74-1.87-.43-4.75-.72-8.28-1.01-5.11-.43-9.07-1.22-11.23-2.74-2.02-1.44-3.38-4.03-3.38-6.98,0-7.7,7.92-11.95,17.79-11.95,11.67,0,16.99,4.46,16.99,12.75h-9.65c-.07-3.74-1.8-5.69-7.2-5.69-4.9,0-7.06,1.66-7.06,4.1,0,1.51.58,2.66,2.59,3.17,1.8.43,4.97.72,8.78,1.08,4.39.43,7.49.86,10.15,2.38,2.3,1.3,3.96,3.96,3.96,7.06,0,7.49-6.41,11.88-18.58,11.88s-17.79-5.33-17.79-12.53Z"/>
        <path class="cls-1" d="M377.5,203.28h11.81v38.09h21.6v9.29h-33.41v-47.38Z"/>
        <path class="cls-1" d="M414.58,240.44c0-5.83,4.18-10.08,13.61-10.08h11.59v-2.38c0-4.32-2.45-6.05-7.49-6.05-4.1,0-6.48,1.73-6.48,4.61,0,.22,0,.79.07,1.51h-10.08c-.07-.58-.14-1.37-.14-2.09,0-7.2,6.34-11.45,17.14-11.45s17.93,5.04,17.93,14.55v21.6h-10.94c.22-1.8.5-5.04.5-7.2h-.07c-1.08,5.04-5.11,7.78-11.59,7.78-8.28,0-14.04-3.6-14.04-10.8ZM439.78,236.98v-.72h-10.58c-2.95,0-4.75,1.37-4.75,3.38,0,2.74,2.38,4.18,6.34,4.18,5.69,0,9-2.52,9-6.84Z"/>
        <path class="cls-1" d="M465.19,243.97h-.07c.07,2.09.22,4.97.36,6.7h-10.95v-49.9h10.95v14.91c0,1.66-.14,4.61-.22,6.34h.14c1.37-4.68,5.9-7.49,12.24-7.49,10.15,0,16.13,6.55,16.13,17.64,0,12.03-6.05,19.08-16.2,19.08-6.48,0-11.09-2.74-12.38-7.27ZM482.83,232.52c0-6.05-3.02-9.65-8.14-9.65-5.76,0-9.22,3.67-9.22,9.79v1.66c0,5.4,3.46,8.57,9.29,8.57,5.04,0,8.06-3.82,8.06-10.37Z"/>
      </g>
    </g>
  </g>
</svg>